{
    "asset" : {
        "generator" : "Khronos glTF Blender I/O v1.8.19",
        "version" : "2.0"
    },
    "scene" : 0,
    "scenes" : [
        {
            "name" : "Scene",
            "nodes" : [
                0
            ]
        }
    ],
    "nodes" : [
        {
            "mesh" : 0,
            "name" : "\u706d\u706b\u566807"
        }
    ],
    "materials" : [
        {
            "doubleSided" : true,
            "name" : "\u9ed1\u8272\u70e4\u6f06.007",
            "pbrMetallicRoughness" : {
                "baseColorFactor" : [
                    1,
                    0.49803900718688965,
                    0,
                    1
                ],
                "metallicFactor" : 0,
                "roughnessFactor" : 0.5
            }
        },
        {
            "doubleSided" : true,
            "name" : "\u9ed1\u8272\u70e4\u6f06.008",
            "pbrMetallicRoughness" : {
                "baseColorFactor" : [
                    0.6980389952659607,
                    0.1333329975605011,
                    0.1333329975605011,
                    1
                ],
                "metallicFactor" : 0,
                "roughnessFactor" : 0.5
            }
        },
        {
            "doubleSided" : true,
            "name" : "\u9ed1\u8272\u70e4\u6f06.009",
            "pbrMetallicRoughness" : {
                "baseColorFactor" : [
                    0.4470590054988861,
                    0.4470590054988861,
                    0.4470590054988861,
                    1
                ],
                "metallicFactor" : 0,
                "roughnessFactor" : 0.5
            }
        },
        {
            "doubleSided" : true,
            "name" : "\u9ed1\u8272\u70e4\u6f06.010",
            "pbrMetallicRoughness" : {
                "baseColorFactor" : [
                    0.11764699965715408,
                    0.11764699965715408,
                    0.11764699965715408,
                    1
                ],
                "metallicFactor" : 0,
                "roughnessFactor" : 0.5
            }
        },
        {
            "doubleSided" : true,
            "name" : "Mat3d66-720210-57-9451",
            "pbrMetallicRoughness" : {
                "metallicFactor" : 0,
                "roughnessFactor" : 0.5
            }
        }
    ],
    "meshes" : [
        {
            "name" : "Obj3d66-720210-148-551",
            "primitives" : [
                {
                    "attributes" : {
                        "POSITION" : 0,
                        "NORMAL" : 1,
                        "TEXCOORD_0" : 2,
                        "TEXCOORD_1" : 3
                    },
                    "indices" : 4,
                    "material" : 0
                },
                {
                    "attributes" : {
                        "POSITION" : 5,
                        "NORMAL" : 6,
                        "TEXCOORD_0" : 7,
                        "TEXCOORD_1" : 8
                    },
                    "indices" : 9,
                    "material" : 1
                },
                {
                    "attributes" : {
                        "POSITION" : 10,
                        "NORMAL" : 11,
                        "TEXCOORD_0" : 12,
                        "TEXCOORD_1" : 13
                    },
                    "indices" : 14,
                    "material" : 2
                },
                {
                    "attributes" : {
                        "POSITION" : 15,
                        "NORMAL" : 16,
                        "TEXCOORD_0" : 17,
                        "TEXCOORD_1" : 18
                    },
                    "indices" : 19,
                    "material" : 3
                },
                {
                    "attributes" : {
                        "POSITION" : 20,
                        "NORMAL" : 21,
                        "TEXCOORD_0" : 22,
                        "TEXCOORD_1" : 23
                    },
                    "indices" : 24,
                    "material" : 4
                }
            ]
        }
    ],
    "accessors" : [
        {
            "bufferView" : 0,
            "componentType" : 5126,
            "count" : 308,
            "max" : [
                0.0640110969543457,
                0.48758554458618164,
                0.09480780363082886
            ],
            "min" : [
                -0.010461807250976562,
                0.3979225158691406,
                0.09240144491195679
            ],
            "type" : "VEC3"
        },
        {
            "bufferView" : 1,
            "componentType" : 5126,
            "count" : 308,
            "type" : "VEC3"
        },
        {
            "bufferView" : 2,
            "componentType" : 5126,
            "count" : 308,
            "type" : "VEC2"
        },
        {
            "bufferView" : 3,
            "componentType" : 5126,
            "count" : 308,
            "type" : "VEC2"
        },
        {
            "bufferView" : 4,
            "componentType" : 5123,
            "count" : 912,
            "type" : "SCALAR"
        },
        {
            "bufferView" : 5,
            "componentType" : 5126,
            "count" : 361,
            "max" : [
                0.12309432029724121,
                0.6308233737945557,
                0.09332907199859619
            ],
            "min" : [
                -0.06504249572753906,
                0.036396026611328125,
                -0.09480777382850647
            ],
            "type" : "VEC3"
        },
        {
            "bufferView" : 6,
            "componentType" : 5126,
            "count" : 361,
            "type" : "VEC3"
        },
        {
            "bufferView" : 7,
            "componentType" : 5126,
            "count" : 361,
            "type" : "VEC2"
        },
        {
            "bufferView" : 8,
            "componentType" : 5126,
            "count" : 361,
            "type" : "VEC2"
        },
        {
            "bufferView" : 9,
            "componentType" : 5123,
            "count" : 1500,
            "type" : "SCALAR"
        },
        {
            "bufferView" : 10,
            "componentType" : 5126,
            "count" : 42,
            "max" : [
                0.19382047653198242,
                0.6385407447814941,
                0.016590625047683716
            ],
            "min" : [
                0.03796863555908203,
                0.6134085655212402,
                -0.01855415105819702
            ],
            "type" : "VEC3"
        },
        {
            "bufferView" : 11,
            "componentType" : 5126,
            "count" : 42,
            "type" : "VEC3"
        },
        {
            "bufferView" : 12,
            "componentType" : 5126,
            "count" : 42,
            "type" : "VEC2"
        },
        {
            "bufferView" : 13,
            "componentType" : 5126,
            "count" : 42,
            "type" : "VEC2"
        },
        {
            "bufferView" : 14,
            "componentType" : 5123,
            "count" : 66,
            "type" : "SCALAR"
        },
        {
            "bufferView" : 15,
            "componentType" : 5126,
            "count" : 170,
            "max" : [
                0.14769220352172852,
                0.6359453201293945,
                0.0930788516998291
            ],
            "min" : [
                -0.19382071495056152,
                0,
                -0.0945574939250946
            ],
            "type" : "VEC3"
        },
        {
            "bufferView" : 16,
            "componentType" : 5126,
            "count" : 170,
            "type" : "VEC3"
        },
        {
            "bufferView" : 17,
            "componentType" : 5126,
            "count" : 170,
            "type" : "VEC2"
        },
        {
            "bufferView" : 18,
            "componentType" : 5126,
            "count" : 170,
            "type" : "VEC2"
        },
        {
            "bufferView" : 19,
            "componentType" : 5123,
            "count" : 432,
            "type" : "SCALAR"
        },
        {
            "bufferView" : 20,
            "componentType" : 5126,
            "count" : 1730,
            "max" : [
                0.0531768798828125,
                0.6309304237365723,
                0.09383642673492432
            ],
            "min" : [
                0.004567146301269531,
                0.07027339935302734,
                -0.01855415105819702
            ],
            "type" : "VEC3"
        },
        {
            "bufferView" : 21,
            "componentType" : 5126,
            "count" : 1730,
            "type" : "VEC3"
        },
        {
            "bufferView" : 22,
            "componentType" : 5126,
            "count" : 1730,
            "type" : "VEC2"
        },
        {
            "bufferView" : 23,
            "componentType" : 5126,
            "count" : 1730,
            "type" : "VEC2"
        },
        {
            "bufferView" : 24,
            "componentType" : 5123,
            "count" : 4038,
            "type" : "SCALAR"
        }
    ],
    "bufferViews" : [
        {
            "buffer" : 0,
            "byteLength" : 3696,
            "byteOffset" : 0
        },
        {
            "buffer" : 0,
            "byteLength" : 3696,
            "byteOffset" : 3696
        },
        {
            "buffer" : 0,
            "byteLength" : 2464,
            "byteOffset" : 7392
        },
        {
            "buffer" : 0,
            "byteLength" : 2464,
            "byteOffset" : 9856
        },
        {
            "buffer" : 0,
            "byteLength" : 1824,
            "byteOffset" : 12320
        },
        {
            "buffer" : 0,
            "byteLength" : 4332,
            "byteOffset" : 14144
        },
        {
            "buffer" : 0,
            "byteLength" : 4332,
            "byteOffset" : 18476
        },
        {
            "buffer" : 0,
            "byteLength" : 2888,
            "byteOffset" : 22808
        },
        {
            "buffer" : 0,
            "byteLength" : 2888,
            "byteOffset" : 25696
        },
        {
            "buffer" : 0,
            "byteLength" : 3000,
            "byteOffset" : 28584
        },
        {
            "buffer" : 0,
            "byteLength" : 504,
            "byteOffset" : 31584
        },
        {
            "buffer" : 0,
            "byteLength" : 504,
            "byteOffset" : 32088
        },
        {
            "buffer" : 0,
            "byteLength" : 336,
            "byteOffset" : 32592
        },
        {
            "buffer" : 0,
            "byteLength" : 336,
            "byteOffset" : 32928
        },
        {
            "buffer" : 0,
            "byteLength" : 132,
            "byteOffset" : 33264
        },
        {
            "buffer" : 0,
            "byteLength" : 2040,
            "byteOffset" : 33396
        },
        {
            "buffer" : 0,
            "byteLength" : 2040,
            "byteOffset" : 35436
        },
        {
            "buffer" : 0,
            "byteLength" : 1360,
            "byteOffset" : 37476
        },
        {
            "buffer" : 0,
            "byteLength" : 1360,
            "byteOffset" : 38836
        },
        {
            "buffer" : 0,
            "byteLength" : 864,
            "byteOffset" : 40196
        },
        {
            "buffer" : 0,
            "byteLength" : 20760,
            "byteOffset" : 41060
        },
        {
            "buffer" : 0,
            "byteLength" : 20760,
            "byteOffset" : 61820
        },
        {
            "buffer" : 0,
            "byteLength" : 13840,
            "byteOffset" : 82580
        },
        {
            "buffer" : 0,
            "byteLength" : 13840,
            "byteOffset" : 96420
        },
        {
            "buffer" : 0,
            "byteLength" : 8076,
            "byteOffset" : 110260
        }
    ],
    "buffers" : [
        {
            "byteLength" : 118336,
            "uri" : "data:application/octet-stream;base64,"
        }
    ]
}
