{
    "asset" : {
        "generator" : "Khronos glTF Blender I/O v1.8.19",
        "version" : "2.0"
    },
    "scene" : 0,
    "scenes" : [
        {
            "name" : "Scene",
            "nodes" : [
                0
            ]
        }
    ],
    "nodes" : [
        {
            "mesh" : 0,
            "name" : "\u706d\u706b\u566804"
        }
    ],
    "materials" : [
        {
            "doubleSided" : true,
            "name" : "Mat3d66-720210-2-1512",
            "pbrMetallicRoughness" : {
                "baseColorFactor" : [
                    0.18431399762630463,
                    0.18431399762630463,
                    0.18431399762630463,
                    1
                ],
                "metallicFactor" : 0,
                "roughnessFactor" : 0.5
            }
        },
        {
            "doubleSided" : true,
            "name" : "\u9ed1\u8272\u70e4\u6f06",
            "pbrMetallicRoughness" : {
                "baseColorFactor" : [
                    1,
                    0,
                    0,
                    1
                ],
                "metallicFactor" : 0,
                "roughnessFactor" : 0.5
            }
        },
        {
            "doubleSided" : true,
            "name" : "\u9ed1\u8272\u70e4\u6f06.001",
            "pbrMetallicRoughness" : {
                "baseColorFactor" : [
                    0.4000000059604645,
                    0.4000000059604645,
                    0.4000000059604645,
                    1
                ],
                "metallicFactor" : 0,
                "roughnessFactor" : 0.5
            }
        },
        {
            "doubleSided" : true,
            "name" : "\u9ed1\u8272\u70e4\u6f06.002",
            "pbrMetallicRoughness" : {
                "baseColorFactor" : [
                    0.18431399762630463,
                    0.18431399762630463,
                    0.18431399762630463,
                    1
                ],
                "metallicFactor" : 0,
                "roughnessFactor" : 0.5
            }
        },
        {
            "doubleSided" : true,
            "name" : "\u9ed1\u8272\u70e4\u6f06.003",
            "pbrMetallicRoughness" : {
                "metallicFactor" : 0,
                "roughnessFactor" : 0.5
            }
        },
        {
            "doubleSided" : true,
            "name" : "Mat3d66-720210-3-4867",
            "pbrMetallicRoughness" : {
                "baseColorTexture" : {
                    "index" : 0
                },
                "metallicFactor" : 0,
                "roughnessFactor" : 0.5
            }
        }
    ],
    "meshes" : [
        {
            "name" : "Obj3d66-720210-1-705",
            "primitives" : [
                {
                    "attributes" : {
                        "POSITION" : 0,
                        "NORMAL" : 1,
                        "TEXCOORD_0" : 2,
                        "TEXCOORD_1" : 3
                    },
                    "indices" : 4,
                    "material" : 0
                },
                {
                    "attributes" : {
                        "POSITION" : 5,
                        "NORMAL" : 6,
                        "TEXCOORD_0" : 7,
                        "TEXCOORD_1" : 8
                    },
                    "indices" : 9,
                    "material" : 1
                },
                {
                    "attributes" : {
                        "POSITION" : 10,
                        "NORMAL" : 11,
                        "TEXCOORD_0" : 12,
                        "TEXCOORD_1" : 13
                    },
                    "indices" : 14,
                    "material" : 2
                },
                {
                    "attributes" : {
                        "POSITION" : 15,
                        "NORMAL" : 16,
                        "TEXCOORD_0" : 17,
                        "TEXCOORD_1" : 18
                    },
                    "indices" : 19,
                    "material" : 3
                },
                {
                    "attributes" : {
                        "POSITION" : 20,
                        "NORMAL" : 21,
                        "TEXCOORD_0" : 22,
                        "TEXCOORD_1" : 23
                    },
                    "indices" : 24,
                    "material" : 4
                },
                {
                    "attributes" : {
                        "POSITION" : 25,
                        "NORMAL" : 26,
                        "TEXCOORD_0" : 27,
                        "TEXCOORD_1" : 28
                    },
                    "indices" : 29,
                    "material" : 5
                }
            ]
        }
    ],
    "textures" : [
        {
            "sampler" : 0,
            "source" : 0
        }
    ],
    "images" : [
        {
            "bufferView" : 30,
            "mimeType" : "image/png",
            "name" : "3d66Model-720210-files-1"
        }
    ],
    "accessors" : [
        {
            "bufferView" : 0,
            "componentType" : 5126,
            "count" : 189,
            "max" : [
                0.24542619287967682,
                0.4153425693511963,
                0.07249578833580017
            ],
            "min" : [
                -0.07197736203670502,
                0,
                -0.07627886533737183
            ],
            "type" : "VEC3"
        },
        {
            "bufferView" : 1,
            "componentType" : 5126,
            "count" : 189,
            "type" : "VEC3"
        },
        {
            "bufferView" : 2,
            "componentType" : 5126,
            "count" : 189,
            "type" : "VEC2"
        },
        {
            "bufferView" : 3,
            "componentType" : 5126,
            "count" : 189,
            "type" : "VEC2"
        },
        {
            "bufferView" : 4,
            "componentType" : 5123,
            "count" : 579,
            "type" : "SCALAR"
        },
        {
            "bufferView" : 5,
            "componentType" : 5126,
            "count" : 224,
            "max" : [
                0.06988252699375153,
                0.4734358787536621,
                0.07494431734085083
            ],
            "min" : [
                -0.09781025350093842,
                0.00260162353515625,
                -0.07324352860450745
            ],
            "type" : "VEC3"
        },
        {
            "bufferView" : 6,
            "componentType" : 5126,
            "count" : 224,
            "type" : "VEC3"
        },
        {
            "bufferView" : 7,
            "componentType" : 5126,
            "count" : 224,
            "type" : "VEC2"
        },
        {
            "bufferView" : 8,
            "componentType" : 5126,
            "count" : 224,
            "type" : "VEC2"
        },
        {
            "bufferView" : 9,
            "componentType" : 5123,
            "count" : 756,
            "type" : "SCALAR"
        },
        {
            "bufferView" : 10,
            "componentType" : 5126,
            "count" : 88,
            "max" : [
                0.018704190850257874,
                0.42180776596069336,
                0.0312921404838562
            ],
            "min" : [
                -0.02025030553340912,
                0.3801414966583252,
                -0.018980175256729126
            ],
            "type" : "VEC3"
        },
        {
            "bufferView" : 11,
            "componentType" : 5126,
            "count" : 88,
            "type" : "VEC3"
        },
        {
            "bufferView" : 12,
            "componentType" : 5126,
            "count" : 88,
            "type" : "VEC2"
        },
        {
            "bufferView" : 13,
            "componentType" : 5126,
            "count" : 88,
            "type" : "VEC2"
        },
        {
            "bufferView" : 14,
            "componentType" : 5123,
            "count" : 210,
            "type" : "SCALAR"
        },
        {
            "bufferView" : 15,
            "componentType" : 5126,
            "count" : 16,
            "max" : [
                0.04689599573612213,
                0.3023405075073242,
                0.07531604170799255
            ],
            "min" : [
                -0.04935501515865326,
                0.11827898025512695,
                -0.07223814725875854
            ],
            "type" : "VEC3"
        },
        {
            "bufferView" : 16,
            "componentType" : 5126,
            "count" : 16,
            "type" : "VEC3"
        },
        {
            "bufferView" : 17,
            "componentType" : 5126,
            "count" : 16,
            "type" : "VEC2"
        },
        {
            "bufferView" : 18,
            "componentType" : 5126,
            "count" : 16,
            "type" : "VEC2"
        },
        {
            "bufferView" : 19,
            "componentType" : 5123,
            "count" : 36,
            "type" : "SCALAR"
        },
        {
            "bufferView" : 20,
            "componentType" : 5126,
            "count" : 4,
            "max" : [
                0.0061197429895401,
                0.41521763801574707,
                -0.0003432035446166992
            ],
            "min" : [
                0.004385009407997131,
                0.41517043113708496,
                -0.003473520278930664
            ],
            "type" : "VEC3"
        },
        {
            "bufferView" : 21,
            "componentType" : 5126,
            "count" : 4,
            "type" : "VEC3"
        },
        {
            "bufferView" : 22,
            "componentType" : 5126,
            "count" : 4,
            "type" : "VEC2"
        },
        {
            "bufferView" : 23,
            "componentType" : 5126,
            "count" : 4,
            "type" : "VEC2"
        },
        {
            "bufferView" : 24,
            "componentType" : 5123,
            "count" : 6,
            "type" : "SCALAR"
        },
        {
            "bufferView" : 25,
            "componentType" : 5126,
            "count" : 10,
            "max" : [
                0.05838574469089508,
                0.3054482936859131,
                0.07627889513969421
            ],
            "min" : [
                -0.06181131303310394,
                0.2653968334197998,
                0.039386093616485596
            ],
            "type" : "VEC3"
        },
        {
            "bufferView" : 26,
            "componentType" : 5126,
            "count" : 10,
            "type" : "VEC3"
        },
        {
            "bufferView" : 27,
            "componentType" : 5126,
            "count" : 10,
            "type" : "VEC2"
        },
        {
            "bufferView" : 28,
            "componentType" : 5126,
            "count" : 10,
            "type" : "VEC2"
        },
        {
            "bufferView" : 29,
            "componentType" : 5123,
            "count" : 24,
            "type" : "SCALAR"
        }
    ],
    "bufferViews" : [
        {
            "buffer" : 0,
            "byteLength" : 2268,
            "byteOffset" : 0
        },
        {
            "buffer" : 0,
            "byteLength" : 2268,
            "byteOffset" : 2268
        },
        {
            "buffer" : 0,
            "byteLength" : 1512,
            "byteOffset" : 4536
        },
        {
            "buffer" : 0,
            "byteLength" : 1512,
            "byteOffset" : 6048
        },
        {
            "buffer" : 0,
            "byteLength" : 1158,
            "byteOffset" : 7560
        },
        {
            "buffer" : 0,
            "byteLength" : 2688,
            "byteOffset" : 8720
        },
        {
            "buffer" : 0,
            "byteLength" : 2688,
            "byteOffset" : 11408
        },
        {
            "buffer" : 0,
            "byteLength" : 1792,
            "byteOffset" : 14096
        },
        {
            "buffer" : 0,
            "byteLength" : 1792,
            "byteOffset" : 15888
        },
        {
            "buffer" : 0,
            "byteLength" : 1512,
            "byteOffset" : 17680
        },
        {
            "buffer" : 0,
            "byteLength" : 1056,
            "byteOffset" : 19192
        },
        {
            "buffer" : 0,
            "byteLength" : 1056,
            "byteOffset" : 20248
        },
        {
            "buffer" : 0,
            "byteLength" : 704,
            "byteOffset" : 21304
        },
        {
            "buffer" : 0,
            "byteLength" : 704,
            "byteOffset" : 22008
        },
        {
            "buffer" : 0,
            "byteLength" : 420,
            "byteOffset" : 22712
        },
        {
            "buffer" : 0,
            "byteLength" : 192,
            "byteOffset" : 23132
        },
        {
            "buffer" : 0,
            "byteLength" : 192,
            "byteOffset" : 23324
        },
        {
            "buffer" : 0,
            "byteLength" : 128,
            "byteOffset" : 23516
        },
        {
            "buffer" : 0,
            "byteLength" : 128,
            "byteOffset" : 23644
        },
        {
            "buffer" : 0,
            "byteLength" : 72,
            "byteOffset" : 23772
        },
        {
            "buffer" : 0,
            "byteLength" : 48,
            "byteOffset" : 23844
        },
        {
            "buffer" : 0,
            "byteLength" : 48,
            "byteOffset" : 23892
        },
        {
            "buffer" : 0,
            "byteLength" : 32,
            "byteOffset" : 23940
        },
        {
            "buffer" : 0,
            "byteLength" : 32,
            "byteOffset" : 23972
        },
        {
            "buffer" : 0,
            "byteLength" : 12,
            "byteOffset" : 24004
        },
        {
            "buffer" : 0,
            "byteLength" : 120,
            "byteOffset" : 24016
        },
        {
            "buffer" : 0,
            "byteLength" : 120,
            "byteOffset" : 24136
        },
        {
            "buffer" : 0,
            "byteLength" : 80,
            "byteOffset" : 24256
        },
        {
            "buffer" : 0,
            "byteLength" : 80,
            "byteOffset" : 24336
        },
        {
            "buffer" : 0,
            "byteLength" : 48,
            "byteOffset" : 24416
        },
        {
            "buffer" : 0,
            "byteLength" : 23834,
            "byteOffset" : 24464
        }
    ],
    "samplers" : [
        {
            "magFilter" : 9729,
            "minFilter" : 9987
        }
    ],
    "buffers" : [
        {
            "byteLength" : 48300,
            "uri" : "data:application/octet-stream;base64,"
        }
    ]
}
