{
    "asset" : {
        "copyright" : "TheFamousRat",
        "generator" : "Khronos glTF Blender I/O v1.1.46",
        "version" : "2.0"
    },
    "scene" : 0,
    "scenes" : [
        {
            "name" : "Scene",
            "nodes" : [
                0,
                1
            ]
        }
    ],
    "nodes" : [
        {
            "mesh" : 0,
            "name" : "Extinguisher",
            "rotation" : [
                -0.9130528569221497,
                0.0035234263632446527,
                0.4077526330947876,
                0.007739590015262365
            ],
            "scale" : [
                0.5379146337509155,
                0.5379146337509155,
                0.5379146337509155
            ],
            "translation" : [
                -5.7780985832214355,
                1.0492602586746216,
                -7.506184101104736
            ]
        },
        {
            "mesh" : 1,
            "name" : "ExtinguisherHolder",
            "rotation" : [
                -0.9130528569221497,
                0.0035234263632446527,
                0.4077526330947876,
                0.007739590015262365
            ],
            "scale" : [
                0.6454975605010986,
                0.6454975605010986,
                0.6454975605010986
            ],
            "translation" : [
                -5.802437782287598,
                -0.7492766976356506,
                -7.5186381340026855
            ]
        }
    ],
    "materials" : [
        {
            "doubleSided" : true,
            "emissiveFactor" : [
                0,
                0,
                0
            ],
            "name" : "FireExtinguisher",
            "pbrMetallicRoughness" : {
                "baseColorFactor" : [
                    0.6000000238418579,
                    0,
                    0.0021260681096464396,
                    1
                ],
                "metallicFactor" : 1,
                "roughnessFactor" : 0.5
            }
        },
        {
            "doubleSided" : true,
            "emissiveFactor" : [
                0,
                0,
                0
            ],
            "name" : "ExtinguisherPlastic_Black",
            "pbrMetallicRoughness" : {
                "baseColorFactor" : [
                    0.009999999776482582,
                    0.009999999776482582,
                    0.009999999776482582,
                    1
                ],
                "metallicFactor" : 0,
                "roughnessFactor" : 0.5
            }
        },
        {
            "doubleSided" : true,
            "emissiveFactor" : [
                0,
                0,
                0
            ],
            "name" : "ExtinguisherPlastic_Blue",
            "pbrMetallicRoughness" : {
                "baseColorFactor" : [
                    0.02441924251616001,
                    0.1913026124238968,
                    1,
                    1
                ],
                "metallicFactor" : 0,
                "roughnessFactor" : 0.5
            }
        },
        {
            "doubleSided" : true,
            "emissiveFactor" : [
                0,
                0,
                0
            ],
            "name" : "FireExtinguisherMetal",
            "pbrMetallicRoughness" : {
                "baseColorFactor" : [
                    0.800000011920929,
                    0.800000011920929,
                    0.800000011920929,
                    1
                ],
                "metallicFactor" : 1,
                "roughnessFactor" : 0.30000001192092896
            }
        },
        {
            "doubleSided" : true,
            "emissiveFactor" : [
                0,
                0,
                0
            ],
            "name" : "ExtinguisherCadrant",
            "pbrMetallicRoughness" : {
                "baseColorFactor" : [
                    0.8000000715255737,
                    0.7257980108261108,
                    0,
                    1
                ],
                "metallicFactor" : 0,
                "roughnessFactor" : 0.800000011920929
            }
        },
        {
            "doubleSided" : true,
            "emissiveFactor" : [
                0,
                0,
                0
            ],
            "name" : "ExtinguisherHose",
            "pbrMetallicRoughness" : {
                "baseColorFactor" : [
                    0.009999999776482582,
                    0.009999999776482582,
                    0.009999999776482582,
                    1
                ],
                "metallicFactor" : 0,
                "roughnessFactor" : 0.30000001192092896
            }
        },
        {
            "doubleSided" : true,
            "emissiveFactor" : [
                0,
                0,
                0
            ],
            "name" : "HolderBand",
            "pbrMetallicRoughness" : {
                "baseColorFactor" : [
                    0.009999999776482582,
                    0.009999999776482582,
                    0.009999999776482582,
                    1
                ],
                "metallicFactor" : 0,
                "roughnessFactor" : 0.5
            }
        }
    ],
    "meshes" : [
        {
            "name" : "Cylinder.002",
            "primitives" : [
                {
                    "attributes" : {
                        "POSITION" : 0,
                        "NORMAL" : 1,
                        "TEXCOORD_0" : 2
                    },
                    "indices" : 3,
                    "material" : 0
                },
                {
                    "attributes" : {
                        "POSITION" : 4,
                        "NORMAL" : 5,
                        "TEXCOORD_0" : 6
                    },
                    "indices" : 7,
                    "material" : 1
                },
                {
                    "attributes" : {
                        "POSITION" : 8,
                        "NORMAL" : 9,
                        "TEXCOORD_0" : 10
                    },
                    "indices" : 11,
                    "material" : 2
                },
                {
                    "attributes" : {
                        "POSITION" : 12,
                        "NORMAL" : 13,
                        "TEXCOORD_0" : 14
                    },
                    "indices" : 15,
                    "material" : 3
                },
                {
                    "attributes" : {
                        "POSITION" : 16,
                        "NORMAL" : 17,
                        "TEXCOORD_0" : 18
                    },
                    "indices" : 19,
                    "material" : 4
                },
                {
                    "attributes" : {
                        "POSITION" : 20,
                        "NORMAL" : 21,
                        "TEXCOORD_0" : 22
                    },
                    "indices" : 23,
                    "material" : 5
                }
            ]
        },
        {
            "name" : "Cylinder.001",
            "primitives" : [
                {
                    "attributes" : {
                        "POSITION" : 24,
                        "NORMAL" : 25,
                        "TEXCOORD_0" : 26
                    },
                    "indices" : 27,
                    "material" : 1
                },
                {
                    "attributes" : {
                        "POSITION" : 28,
                        "NORMAL" : 29,
                        "TEXCOORD_0" : 30
                    },
                    "indices" : 31,
                    "material" : 6
                }
            ]
        }
    ],
    "accessors" : [
        {
            "bufferView" : 0,
            "componentType" : 5126,
            "count" : 169,
            "max" : [
                1.0002611875534058,
                2.352344036102295,
                0.9281732439994812
            ],
            "min" : [
                -1.0145409107208252,
                -2.251804828643799,
                -0.8199288249015808
            ],
            "type" : "VEC3"
        },
        {
            "bufferView" : 1,
            "componentType" : 5126,
            "count" : 169,
            "type" : "VEC3"
        },
        {
            "bufferView" : 2,
            "componentType" : 5126,
            "count" : 169,
            "type" : "VEC2"
        },
        {
            "bufferView" : 3,
            "componentType" : 5123,
            "count" : 255,
            "type" : "SCALAR"
        },
        {
            "bufferView" : 4,
            "componentType" : 5126,
            "count" : 934,
            "max" : [
                1.3514840602874756,
                3.3740882873535156,
                0.963937520980835
            ],
            "min" : [
                -1.4813345670700073,
                -2.844144105911255,
                -0.8587181568145752
            ],
            "type" : "VEC3"
        },
        {
            "bufferView" : 5,
            "componentType" : 5126,
            "count" : 934,
            "type" : "VEC3"
        },
        {
            "bufferView" : 6,
            "componentType" : 5126,
            "count" : 934,
            "type" : "VEC2"
        },
        {
            "bufferView" : 7,
            "componentType" : 5123,
            "count" : 1410,
            "type" : "SCALAR"
        },
        {
            "bufferView" : 8,
            "componentType" : 5126,
            "count" : 302,
            "max" : [
                1.2770212888717651,
                -2.625565528869629,
                0.4835895597934723
            ],
            "min" : [
                -0.2670712471008301,
                -3.4954047203063965,
                -0.16284625232219696
            ],
            "type" : "VEC3"
        },
        {
            "bufferView" : 9,
            "componentType" : 5126,
            "count" : 302,
            "type" : "VEC3"
        },
        {
            "bufferView" : 10,
            "componentType" : 5126,
            "count" : 302,
            "type" : "VEC2"
        },
        {
            "bufferView" : 11,
            "componentType" : 5123,
            "count" : 444,
            "type" : "SCALAR"
        },
        {
            "bufferView" : 12,
            "componentType" : 5126,
            "count" : 244,
            "max" : [
                0.0962509736418724,
                2.504775047302246,
                0.1065378338098526
            ],
            "min" : [
                -1.4222607612609863,
                -2.696993350982666,
                -0.3749593198299408
            ],
            "type" : "VEC3"
        },
        {
            "bufferView" : 13,
            "componentType" : 5126,
            "count" : 244,
            "type" : "VEC3"
        },
        {
            "bufferView" : 14,
            "componentType" : 5126,
            "count" : 244,
            "type" : "VEC2"
        },
        {
            "bufferView" : 15,
            "componentType" : 5123,
            "count" : 372,
            "type" : "SCALAR"
        },
        {
            "bufferView" : 16,
            "componentType" : 5126,
            "count" : 6,
            "max" : [
                0.04348268359899521,
                -2.284281015396118,
                -0.173236683011055
            ],
            "min" : [
                -0.18845024704933167,
                -2.4919557571411133,
                -0.23185455799102783
            ],
            "type" : "VEC3"
        },
        {
            "bufferView" : 17,
            "componentType" : 5126,
            "count" : 6,
            "type" : "VEC3"
        },
        {
            "bufferView" : 18,
            "componentType" : 5126,
            "count" : 6,
            "type" : "VEC2"
        },
        {
            "bufferView" : 19,
            "componentType" : 5123,
            "count" : 12,
            "type" : "SCALAR"
        },
        {
            "bufferView" : 20,
            "componentType" : 5126,
            "count" : 354,
            "max" : [
                -0.17976589500904083,
                2.1839447021484375,
                0.10414907336235046
            ],
            "min" : [
                -2.233475923538208,
                -2.653571605682373,
                -0.5703872442245483
            ],
            "type" : "VEC3"
        },
        {
            "bufferView" : 21,
            "componentType" : 5126,
            "count" : 354,
            "type" : "VEC3"
        },
        {
            "bufferView" : 22,
            "componentType" : 5126,
            "count" : 354,
            "type" : "VEC2"
        },
        {
            "bufferView" : 23,
            "componentType" : 5123,
            "count" : 534,
            "type" : "SCALAR"
        },
        {
            "bufferView" : 24,
            "componentType" : 5126,
            "count" : 650,
            "max" : [
                1.0649242401123047,
                0.10851860046386719,
                1.4236382246017456
            ],
            "min" : [
                -1.0649244785308838,
                -4.034482002258301,
                -1.0649244785308838
            ],
            "type" : "VEC3"
        },
        {
            "bufferView" : 25,
            "componentType" : 5126,
            "count" : 650,
            "type" : "VEC3"
        },
        {
            "bufferView" : 26,
            "componentType" : 5126,
            "count" : 650,
            "type" : "VEC2"
        },
        {
            "bufferView" : 27,
            "componentType" : 5123,
            "count" : 1020,
            "type" : "SCALAR"
        },
        {
            "bufferView" : 28,
            "componentType" : 5126,
            "count" : 104,
            "max" : [
                0.9747711420059204,
                -2.5177011489868164,
                0.5088425278663635
            ],
            "min" : [
                -0.9747711420059204,
                -3.1390466690063477,
                -0.7435990571975708
            ],
            "type" : "VEC3"
        },
        {
            "bufferView" : 29,
            "componentType" : 5126,
            "count" : 104,
            "type" : "VEC3"
        },
        {
            "bufferView" : 30,
            "componentType" : 5126,
            "count" : 104,
            "type" : "VEC2"
        },
        {
            "bufferView" : 31,
            "componentType" : 5123,
            "count" : 156,
            "type" : "SCALAR"
        }
    ],
    "bufferViews" : [
        {
            "buffer" : 0,
            "byteLength" : 2028,
            "byteOffset" : 0
        },
        {
            "buffer" : 0,
            "byteLength" : 2028,
            "byteOffset" : 2028
        },
        {
            "buffer" : 0,
            "byteLength" : 1352,
            "byteOffset" : 4056
        },
        {
            "buffer" : 0,
            "byteLength" : 510,
            "byteOffset" : 5408
        },
        {
            "buffer" : 0,
            "byteLength" : 11208,
            "byteOffset" : 5920
        },
        {
            "buffer" : 0,
            "byteLength" : 11208,
            "byteOffset" : 17128
        },
        {
            "buffer" : 0,
            "byteLength" : 7472,
            "byteOffset" : 28336
        },
        {
            "buffer" : 0,
            "byteLength" : 2820,
            "byteOffset" : 35808
        },
        {
            "buffer" : 0,
            "byteLength" : 3624,
            "byteOffset" : 38628
        },
        {
            "buffer" : 0,
            "byteLength" : 3624,
            "byteOffset" : 42252
        },
        {
            "buffer" : 0,
            "byteLength" : 2416,
            "byteOffset" : 45876
        },
        {
            "buffer" : 0,
            "byteLength" : 888,
            "byteOffset" : 48292
        },
        {
            "buffer" : 0,
            "byteLength" : 2928,
            "byteOffset" : 49180
        },
        {
            "buffer" : 0,
            "byteLength" : 2928,
            "byteOffset" : 52108
        },
        {
            "buffer" : 0,
            "byteLength" : 1952,
            "byteOffset" : 55036
        },
        {
            "buffer" : 0,
            "byteLength" : 744,
            "byteOffset" : 56988
        },
        {
            "buffer" : 0,
            "byteLength" : 72,
            "byteOffset" : 57732
        },
        {
            "buffer" : 0,
            "byteLength" : 72,
            "byteOffset" : 57804
        },
        {
            "buffer" : 0,
            "byteLength" : 48,
            "byteOffset" : 57876
        },
        {
            "buffer" : 0,
            "byteLength" : 24,
            "byteOffset" : 57924
        },
        {
            "buffer" : 0,
            "byteLength" : 4248,
            "byteOffset" : 57948
        },
        {
            "buffer" : 0,
            "byteLength" : 4248,
            "byteOffset" : 62196
        },
        {
            "buffer" : 0,
            "byteLength" : 2832,
            "byteOffset" : 66444
        },
        {
            "buffer" : 0,
            "byteLength" : 1068,
            "byteOffset" : 69276
        },
        {
            "buffer" : 0,
            "byteLength" : 7800,
            "byteOffset" : 70344
        },
        {
            "buffer" : 0,
            "byteLength" : 7800,
            "byteOffset" : 78144
        },
        {
            "buffer" : 0,
            "byteLength" : 5200,
            "byteOffset" : 85944
        },
        {
            "buffer" : 0,
            "byteLength" : 2040,
            "byteOffset" : 91144
        },
        {
            "buffer" : 0,
            "byteLength" : 1248,
            "byteOffset" : 93184
        },
        {
            "buffer" : 0,
            "byteLength" : 1248,
            "byteOffset" : 94432
        },
        {
            "buffer" : 0,
            "byteLength" : 832,
            "byteOffset" : 95680
        },
        {
            "buffer" : 0,
            "byteLength" : 312,
            "byteOffset" : 96512
        }
    ],
    "buffers" : [
        {
            "byteLength" : 96824,
            "uri" : "data:application/octet-stream;base64,"
        }
    ]
}
